<mxfile host="app.diagrams.net" modified="2023-08-08T08:45:41.322Z" agent="Mozilla/5.0 (Macintosh; Intel Mac OS X 10_15_7) AppleWebKit/537.36 (KHTML, like Gecko) Chrome/115.0.0.0 Safari/537.36" version="21.6.6" etag="JRhVJAzyr1EvjLz045VB" type="github">
  <diagram name="第 1 页" id="yFifD4qQG32q2zH82aah">
    <mxGraphModel>
      <root>
        <mxCell id="0" />
        <mxCell id="1" parent="0" />
      </root>
    </mxGraphModel>
  </diagram>
</mxfile>
